# xmcd CD database file
#
# Track frame offsets:
#	150
#	12872
#	35365
#	61182
#	88912
#	119902
#	135172
#	150775
#	173207
#	192320
#	207095
#	219540
#	232935
#	250027
#	272905
#
# Disc length: 3780 seconds
#
# Revision: 5
# Processed by: cddbd v1.5.2PL0 Copyright (c) Steve Scherf et al.
# Submitted via: CDex 1.51
#
DISCID=c50ec20f
DTITLE=B.B. King - The Blues Collection
DYEAR=1994
DGENRE=Blues
TTITLE0=Please Love Me
TTITLE1=The Thrill Is Gone
TTITLE2=Guess Who
TTITLE3=Payin' The Cost To Be The Boss
TTITLE4=Outside Help
TTITLE5=How Blue Can You Get
TTITLE6=The Letter
TTITLE7=Everyday I Have The Blues
TTITLE8=Sweet Sixteen
TTITLE9=Precious Lord
TTITLE10=I'm Working On The Building
TTITLE11=Servant's Prayer
TTITLE12=Evil Child
TTITLE13=You've Done Lost Your Good Thing Now
TTITLE14=Catfish Blues
EXTD=YEAR: 1994
EXTT0=
EXTT1=
EXTT2=
EXTT3=
EXTT4=
EXTT5=
EXTT6=
EXTT7=
EXTT8=
EXTT9=
EXTT10=
EXTT11=
EXTT12=
EXTT13=
EXTT14=
PLAYORDER=
